{"title":"BBC Africa E04 Cape 2013 1080p x264 AC3 - alrmothe","uid":8644458,"size":6013393759,"categoryP":"video","categoryS":"hd___movies","magnet":"?xt=urn:btih:9183cba58eadfe22c8f9cd8aef582250f2b24e95&amp;dn=BBC+Africa+E04+Cape+2013+1080p+x264+AC3+-+alrmothe&amp;tr=udp%3A%2F%2Ftracker.openbittorrent.com%3A80&amp;tr=udp%3A%2F%2Fopen.demonii.com%3A1337&amp;tr=udp%3A%2F%2Ftracker.coppersurfer.tk%3A6969&amp;tr=udp%3A%2F%2Fexodus.desync.com%3A6969","seeders":2,"leechers":1,"uploader":".alrmothe","files":21,"time":1372954216,"description":"***************************************************************\n\nBBC Africa E04 Cape 2013 1080p x264 AC3 - alrmothe\n\n***************************************************************\n\nTitle : BBC David Attenborough's Africa \nYEAR: 2013\nGENRE : Documentary    \nimdb URL :http://www.imdb.com/title/tt2571774/\nFormat: Matroska\nOverall bit rate:14 Mbps\nFormat version: Version 4 / Version 2\nFile size:  5.60 GiB\nDuration: 57mn 4s\n\n***************************************************************\n\nVideo\nFormat : AVC \nFormat/Info : Advanced Video Codec \nFormat profile : &lt;a class=&quot;__cf_email__&quot; href=&quot;/cdn-cgi/l/email-protection&quot; data-cfemail=&quot;440c2d232c0408706a75&quot;&gt;[email&amp;#160;protected]&lt;/a&gt;&lt;script cf-hash='f9e31' type=&quot;text/javascript&quot;&gt;\n/* &lt;![CDATA[ */!function(){try{var t=&quot;currentScript&quot;in document?document.currentScript:function(){for(var t=document.getElementsByTagName(&quot;script&quot;),e=t.length;e--;)if(t[e].getAttribute(&quot;cf-hash&quot;))return t[e]}();if(t&amp;&amp;t.previousSibling){var e,r,n,i,c=t.previousSibling,a=c.getAttribute(&quot;data-cfemail&quot;);if(a){for(e=&quot;&quot;,r=parseInt(a.substr(0,2),16),n=2;a.length-n;n+=2)i=parseInt(a.substr(n,2),16)^r,e+=String.fromCharCode(i);e=document.createTextNode(e),c.parentNode.replaceChild(e,c)}}}catch(u){}}();/* ]]&gt; */&lt;/script&gt; \nFormat settings, CABAC : Yes \nFormat settings, ReFrames : 4 frames  \nCodec ID : V_MPEG4/ISO/AVC  \nBit rate :13.4 Mbps \nWidth : 1920 pixels \nHeight :1080 pixels \nDisplay aspect ratio : 16:9 \nFrame rate : 25 fps \nColor space : YUV \nChroma subsampling : 4:2:0 \nBit depth : 8 bits \nScan type : Progressive \nBits/(Pixel*Frame) : 0.258 \nStream size: 5.23 GiB \n\n\nAudio#1 \nFormat: AC3\nBit rate :640 Kbps\nChannel(s) : 6 channels\nChannel positions:Front: L C R, Side: L R, LFE\nSampling rate: 48.0 KHz\nBit depth: 16bits\nCompression mode: Lossy\nStream size: 261 MiB\nLanguage : English\n\n\nsub : Arabic,English\n\n***************************************************************\nScreenshots &lt;a href=&quot;\nhttp://img836.imageshack.us/img836/3759/8bv5.png&quot; rel=&quot;nofollow&quot; target=&quot;_NEW&quot;&gt;\nhttp://img836.imageshack.us/img836/3759/8bv5.png&lt;/a&gt; &lt;a href=&quot;\nhttp://img822.imageshack.us/img822/3/rrx3.png&quot; rel=&quot;nofollow&quot; target=&quot;_NEW&quot;&gt;\nhttp://img822.imageshack.us/img822/3/rrx3.png&lt;/a&gt; &lt;a href=&quot;\nhttp://img194.imageshack.us/img194/6997/0ia8.png&quot; rel=&quot;nofollow&quot; target=&quot;_NEW&quot;&gt;\nhttp://img194.imageshack.us/img194/6997/0ia8.png&lt;/a&gt; &lt;a href=&quot;\nhttp://img526.imageshack.us/img526/1408/nhtt.png&quot; rel=&quot;nofollow&quot; target=&quot;_NEW&quot;&gt;\nhttp://img526.imageshack.us/img526/1408/nhtt.png&lt;/a&gt; &lt;a href=&quot;\nhttp://img442.imageshack.us/img442/7443/2kwg.png&quot; rel=&quot;nofollow&quot; target=&quot;_NEW&quot;&gt;\nhttp://img442.imageshack.us/img442/7443/2kwg.png&lt;/a&gt; &lt;a href=&quot;\nhttp://img708.imageshack.us/img708/120/3rrf.png&quot; rel=&quot;nofollow&quot; target=&quot;_NEW&quot;&gt;\nhttp://img708.imageshack.us/img708/120/3rrf.png&lt;/a&gt; &lt;a href=&quot;\nhttp://img23.imageshack.us/img23/65/6g5.png&quot; rel=&quot;nofollow&quot; target=&quot;_NEW&quot;&gt;\nhttp://img23.imageshack.us/img23/65/6g5.png&lt;/a&gt; &lt;a href=&quot;\nhttp://img818.imageshack.us/img818/579/8ua.png&quot; rel=&quot;nofollow&quot; target=&quot;_NEW&quot;&gt;\nhttp://img818.imageshack.us/img818/579/8ua.png&lt;/a&gt; &lt;a href=&quot;\nhttp://img189.imageshack.us/img189/9809/bpnb.png&quot; rel=&quot;nofollow&quot; target=&quot;_NEW&quot;&gt;\nhttp://img189.imageshack.us/img189/9809/bpnb.png&lt;/a&gt;","torrent":{"xt":"urn:btih:9183cba58eadfe22c8f9cd8aef582250f2b24e95","amp;dn":"BBC+Africa+E04+Cape+2013+1080p+x264+AC3+-+alrmothe","amp;tr":["udp%3A%2F%2Ftracker.openbittorrent.com%3A80","udp%3A%2F%2Fopen.demonii.com%3A1337","udp%3A%2F%2Ftracker.coppersurfer.tk%3A6969","udp%3A%2F%2Fexodus.desync.com%3A6969"],"infoHash":"9183cba58eadfe22c8f9cd8aef582250f2b24e95","infoHashBuffer":{"type":"Buffer","data":[145,131,203,165,142,173,254,34,200,249,205,138,239,88,34,80,242,178,78,149]},"announce":[],"urlList":[]}}